<svg xmlns="http://www.w3.org/2000/svg" xmlns:xlink="http://www.w3.org/1999/xlink" version="1.1" x="0px" y="0px" viewBox="0 0 100 125" enable-background="new 0 0 100 100" xml:space="preserve"><path fill="#000000" d="M76.2,90.7c-0.9,0-1.8-0.5-3-1.8c-0.5-0.5-0.9-1-1.3-1.5c-0.6-0.9-0.7-2-0.2-3c0.6-1.2,2-1.8,3.3-1.5  c0.6,0.2,1.1,0.1,1.2,0.1c1.2-0.6,2.4-0.3,3,0.6c0.5,0.8,0.4,1.8-0.2,3c-0.2,0.3-0.3,0.8-0.4,1.2C78.3,89.1,77.8,90.7,76.2,90.7z   M74.2,85c-0.4,0-0.6,0.2-0.7,0.5c-0.1,0.1-0.2,0.5,0.1,0.9c0.3,0.4,0.6,0.8,1,1.2c1,1,1.4,1.1,1.6,1.2c0.2-0.2,0.4-0.9,0.5-1.4  c0.2-0.5,0.3-1.1,0.6-1.6c0.3-0.6,0.3-1,0.2-1.1c0,0-0.2,0.1-0.4,0.2c-0.7,0.3-1.6,0.4-2.7,0.1C74.4,85,74.3,85,74.2,85z M75.9,79.7  c-0.8,0-1.6-0.2-2.3-0.6c-1.2-0.6-2.6-0.8-4.4-0.9c-5.1-0.2-6.9-1.8-7.3-6.7c0-0.1-0.2-0.2-0.7-0.5c-0.6-0.3-1.8-0.9-1.6-2.4  c-1-0.8-1.3-1.8-1.3-2.9l-2.3,2C55.6,68,55.3,68,55,68c-0.3-0.1-0.6-0.3-0.7-0.6c-1.6-3.9-5-5.4-8.1-6.4c-0.7-0.2-1.4,0-2.1,0.2  c-0.3,0.1-0.6,0.2-1,0.3c-0.8,0.2-1.5,0.3-2.3,0.4c-3.4,0.6-6.5,1.2-8.8,3.9c-0.9,1.1-2.3,1.7-3.8,1.7l-0.2,0c-0.6,0-1.2,0-1.7,0  c-2.4,0-4.1,0.4-5.2,2.7c-0.6,1.1-2.1,1.1-2.6,1.1c-2.1,0-5-0.8-6.2-1.7c-0.3-0.2-0.5-0.7-0.4-1.1c1.4-5.8-1.3-10-4.2-14.4  c-0.5-0.7-0.9-1.4-1.4-2.1c-0.4-0.6-0.5-1.4-0.2-2.1c0.2-0.4,0.4-0.8,0.8-1c-0.1-0.3-0.3-0.7-0.6-1.1c-0.4-0.6-0.8-1.2-1-2  c-1.2-5.8,1-8.9,7.8-11.3c0.6-0.2,1.1-0.4,1.7-0.6c3.1-1,6-1.9,7.8-4.7l0.2-0.4c0.4-0.6,0.6-0.8,0.4-1.5c-0.3-1,0.7-1.9,3.9-4.2  c0.7-0.5,1.4-1,1.7-1.3c0.5-0.6,3.8-4.3,8.8-4.3c0.9,0,1.7,0.1,2.6,0.3c0.1-1.4,0.6-2.7,1.5-3.7c1.2-1.4,3-2.2,5-2.3  c0.3,0,0.4-0.1,0.4-0.1c0.9-0.9,2.5-1.4,4-1.2c0.9,0.1,1.7,0.2,2.5,0.3c1.1,0.1,2.3,0.3,3.5,0.4c0.9,0.1,1.6,0.7,1.9,1.5  c0.3,0.8,0.2,1.7-0.4,2.4c-0.3,0.3-0.5,0.7-0.8,1.1c-0.7,1.2-0.4,2.8,0.7,3.7l0.9,0.7c1.9,1.5,3.7,3,5.8,4c0.1,0.1,0.3,0.1,0.4,0.2  c0.3,0.2,0.6,0.3,0.8,0.3c0,0,0.1,0,0.2-0.1l0.5-0.5c0.6-1.2,0.8-2.6,1.1-4.1c0.1-0.3,0.1-0.7,0.2-1c0.1-0.8,0.2-1.6,0.3-2.4  c0.3-2.8,0.7-5.8,3-8.2C72.1,9.1,72.4,9,72.7,9c0.3,0,0.5,0.1,0.7,0.3L74,9.9c0.1,0.1,0.2,0.3,0.3,0.5c0.2,0.8,0.5,1.6,0.8,2.4  c0.6,1.4,1.2,2.9,1.2,4.7c0,0,0,0,0,0.1c3.6,1.2,3.7,4.1,3.8,6.4c0,1.2,0.1,2.3,0.5,3.1c0.3,0.6,0.5,1.3,0.6,1.8  c0.4,1.4,0.6,2,2,2.2c1.2,0.1,2.7,1.4,3,2.6c0.8,3,1.9,4.9,3.8,6.3c0.6,0.4,0.6,1,0.6,1.5c0,0.2,0,0.6,0.1,0.7c0,0,0.1,0.1,0.1,0.1  l0.6,0.6c0,0,0.1,0.1,0.1,0.2c0.3,0.5,0.6,0.9,1,1.4c1.2,1.6,2.6,3.3,2.3,5.7l-0.1,0.7c-0.5,5.1-1.1,10.4-4.6,15  c-2.2,2.9-4.3,6-5.3,9.7c-0.5,1.9-1.4,2.3-2.1,2.3l0,0c-0.2,0-0.3,0-0.5-0.1c-1.4-0.5-2.3-0.1-3.8,1C77.8,79.4,76.9,79.7,75.9,79.7z   M61.5,68.9c0.1,0.1,0.3,0.2,0.5,0.3c0.6,0.3,1.7,0.8,1.8,2.1c0.3,3.9,1.2,4.8,5.4,4.9c1.7,0.1,3.7,0.2,5.3,1.1c1,0.5,2.1,0.5,3-0.2  c1.1-0.8,2.3-1.6,3.9-1.6c0.5,0,0.9,0.1,1.4,0.2c0.1-0.1,0.2-0.4,0.3-0.8c1.1-4,3.4-7.3,5.7-10.3c3.1-4.1,3.6-8.9,4.2-14L93,50  c0.2-1.6-0.8-2.9-1.9-4.3c-0.4-0.5-0.7-0.9-1-1.4l-0.5-0.5c-0.8-0.6-0.8-1.6-0.8-2.1c0-0.1,0-0.1,0-0.2c-2.8-2.1-3.8-4.9-4.4-7.2  c-0.1-0.4-0.9-1.1-1.3-1.1c-2.8-0.3-3.3-2.3-3.7-3.7c-0.1-0.5-0.3-1-0.5-1.4c-0.6-1.2-0.7-2.6-0.7-4c-0.1-2.5-0.2-4-2.7-4.6  c-1.1-0.3-1.1-1.9-1.1-1.9c0-1.3-0.5-2.6-1-3.9c-0.2-0.6-0.5-1.2-0.7-1.8c-1.1,1.7-1.4,3.8-1.7,6c-0.1,0.8-0.2,1.7-0.4,2.5  c-0.1,0.3-0.1,0.7-0.2,1c-0.3,1.6-0.6,3.2-1.4,4.8c0,0.1-0.1,0.2-0.2,0.3l-0.6,0.6c0,0-0.1,0.1-0.1,0.1c-0.5,0.4-1,0.5-1.5,0.5  c-0.7,0-1.3-0.3-1.8-0.6c-0.1-0.1-0.2-0.1-0.4-0.2c-2.3-1.1-4.3-2.7-6.2-4.2l-0.9-0.7c-1.9-1.5-2.4-4.3-1.2-6.3  c0.3-0.5,0.6-0.9,1-1.3c0.1-0.1,0.1-0.3,0.1-0.4c0-0.1-0.1-0.2-0.3-0.3c-1.3-0.2-2.4-0.3-3.5-0.4c-0.8-0.1-1.7-0.2-2.5-0.3  c-0.9-0.1-1.8,0.1-2.4,0.6c-0.4,0.4-0.9,0.6-1.6,0.6c-1.5,0.1-2.8,0.6-3.6,1.6c-0.8,1-1.2,2.3-1,3.7c0,0.4-0.1,0.7-0.4,0.9  c-0.3,0.2-0.7,0.3-1,0.1c-1.1-0.4-2.2-0.7-3.2-0.7c-4.3,0-7.2,3.6-7.3,3.6c0,0-0.1,0.1-0.1,0.1c-0.4,0.4-1.1,0.9-1.9,1.5  c-0.9,0.7-2.5,1.8-3,2.4c0.2,1.3-0.3,2.1-0.7,2.8l-0.2,0.3c-2.2,3.5-5.8,4.6-8.9,5.6c-0.6,0.2-1.1,0.4-1.7,0.5c-5.9,2-7.4,4.2-6.5,9  c0.1,0.4,0.4,0.8,0.7,1.3c0.5,0.7,1.1,1.6,1,2.8c0,0.4-0.3,0.8-0.7,0.9c-0.2,0-0.2,0.2-0.2,0.2c0,0.1-0.1,0.2,0,0.3  C8.5,51.6,9,52.3,9.4,53c2.9,4.4,5.9,9,4.6,15.2c1.1,0.5,3.1,1,4.5,1c0.5,0,0.7-0.1,0.8-0.1c1.7-3.2,4.5-3.6,6.9-3.6  c0.5,0,1.1,0,1.7,0l0.2,0c1.2,0,1.9-0.6,2.2-1c2.7-3.3,6.4-4,10-4.6c0.8-0.1,1.5-0.3,2.3-0.4c0.3-0.1,0.5-0.1,0.8-0.2  c0.6-0.2,1.3-0.4,2-0.4c0.4,0,0.8,0.1,1.2,0.2c3.2,1,6.7,2.5,8.8,6.3l2.9-2.5c0.3-0.3,0.7-0.3,1-0.2c0.4,0.1,0.6,0.5,0.6,0.9  c0,0.4,0,0.8,0,1.2c0,1.4,0.1,1.9,0.7,2.3C61.4,67.5,61.7,68.2,61.5,68.9C61.5,68.9,61.5,68.9,61.5,68.9z"/> </svg>