<svg xmlns="http://www.w3.org/2000/svg" xmlns:xlink="http://www.w3.org/1999/xlink" version="1.1" x="0px" y="0px" viewBox="0 0 100 125" enable-background="new 0 0 100 100" xml:space="preserve"><path d="M98.265,81.627c-0.825-1.674-1.965-1.848-2.525-1.82c-1.02,0.343-2.071,0.577-3.033,0.577c-1.638,0-3.585-0.541-4.11-4.755  c-0.28-2.24-0.191-5.091-0.09-8.393c0.376-12.101,0.942-30.387-18.009-41.57c-0.405-0.238-10.071-5.832-22.247-5.832  c-3.52,0-6.927,0.479-10.131,1.421c-3.51,1.032-6.486,1.556-8.851,1.556c-3.077,0-4.385-0.876-4.935-1.564  c2.596-1.62,5.881-5.107,6.059-10.554c-0.157-2.921-2.399-2.98-3.522-2.823c-2.544,0.619-7.32,2.303-10.533,6.616  c-3.411,0.122-7.164,1.464-8.39,4.879c-1.672,0.944-4.31,2.824-3.775,5.061c0.496,2.081,3.109,3.01,8.937,3.13  c0.854,2.194,3.119,7.25,7.067,10.985c-0.209,0.376-0.453,0.81-0.685,1.219c-2.319,4.108-3.451,6.261-3.611,7.377  c-0.327,2.301,0.275,4.412,1.746,6.107c1.796,2.07,4.446,2.997,6.276,2.997c1.565,0,2.715-0.644,3.157-1.767  c0.543-1.373-0.134-2.958-2.012-4.712c-0.345-0.322-0.48-0.641-0.455-1.062c0.1-1.665,2.556-4.237,4.517-5.779  c1.575,0.173,3.184,0.074,4.821-0.286c1.589,1.639,5.779,5.471,10.89,6.275c0.222,4.329,1.784,17.086,12.274,25  c1.812,1.364,2.763,2.766,2.831,4.161c0.131,2.715-2.964,5.558-5.012,7.438c-1.837,1.686-3.049,2.8-2.475,4.272  c0.536,1.381,2.189,1.381,2.812,1.381c0.431,0,0.935-0.029,1.541-0.087l0.151-0.021c0.441-0.086,10.851-2.179,13.207-8.506  c1.117-3,0.284-6.303-2.478-9.82c-8.057-10.264-3.938-19.434-3.149-20.969c1.115-0.982,5.037-4.595,6.708-8.222  c2.932,3.53,8.39,12.337,8.07,28.688c-0.11,5.729,1.195,10.022,3.884,12.763c1.894,1.932,4.376,2.952,7.184,2.952  c1.929,0,3.873-0.502,5.66-1.373c0.222-0.141,0.433-0.265,0.577-0.343C97.359,85.81,99.394,83.926,98.265,81.627z M85.443,82.774  c-2.042-2.081-3.071-5.708-2.978-10.487c0.342-17.547-5.539-26.975-8.877-30.895c-0.207-0.168-0.452-0.394-0.739-0.687  c-2.782-2.832-3.844-0.506-4.036,0.015c-0.182,2.353-3.886,6.527-6.574,8.834l-0.204,0.176l-0.137,0.232  c-0.277,0.483-6.723,11.969,3.287,24.719c2.033,2.59,2.706,4.864,2.003,6.759c-1.311,3.527-7.124,5.614-10.067,6.336  c2.482-2.28,6.164-5.701,5.963-9.857c-0.115-2.379-1.489-4.577-4.085-6.535c-9.767-7.366-10.905-19.919-11.034-23.117  c-0.204-1.819-1.591-2.299-2.043-2.406c-3.588-0.323-6.853-2.774-8.695-4.445c-1.793-1.308-3.805-1.672-5.603-1.622  c-0.241,0.021-0.482,0.035-0.721,0.04c-2.234,0.196-4.01,0.953-4.385,1.123c-1.805,1.522-4.897,4.55-5.083,7.547  c-0.085,1.368,0.417,2.602,1.454,3.569c0.459,0.428,0.74,0.76,0.915,1.002c-1.109-0.037-2.736-0.693-3.79-1.908  c-0.863-0.995-1.201-2.209-1.004-3.58c0.167-0.849,2.316-4.667,3.234-6.293c1.694-3.002,1.796-3.202,1.298-4.055l-0.038-0.022  c-0.288-0.235-0.576-0.716-0.859-0.716h-0.028c-4.173-4-6.388-9.555-6.815-10.77c-0.503-1.009-1.285-1.253-1.58-1.303  c-2.637-0.011-4.307-0.193-5.361-0.387c-1.289-0.338-0.564-1.087-0.4-1.235c0.463-0.336,1.005-0.679,1.531-0.95l0.652-0.332  l0.167-0.714c0.715-3.017,5.157-3.171,6.041-3.171c0.134,0,0.216,0.005,0.227,0.005l0.903,0.044l0.498-0.751  c1.979-2.994,4.986-4.591,7.273-5.419l-0.079,0.043c0,0,1.49-0.602,1.338,0.886c-0.002,0.023-0.002,0.037-0.003,0.06  c-1.035,4.652-5.066,6.456-5.268,6.542l-1.015,0.427l0.05,1.101c0.008,0.22,0.327,5.397,8.492,5.397  c2.665,0,5.944-0.566,9.743-1.685c2.914-0.855,6.021-1.29,9.238-1.29c11.287,0,20.555,5.342,20.644,5.393  c17.336,10.231,16.825,26.713,16.451,38.748c-0.106,3.434-0.198,6.398,0.112,8.883c0.673,5.375,3.54,6.995,5.848,7.402  c1.292,0.656,0.605,1.107,0.26,1.266c-0.397,0.054-0.797,0.088-1.195,0.088C89.018,84.777,87.066,84.43,85.443,82.774z"/><text x="0" y="115" fill="#000000" font-size="5px" font-weight="bold" font-family="'Helvetica Neue', Helvetica, Arial-Unicode, Arial, Sans-serif"></text><text x="0" y="120" fill="#000000" font-size="5px" font-weight="bold" font-family="'Helvetica Neue', Helvetica, Arial-Unicode, Arial, Sans-serif"></text></svg>