<svg xmlns="http://www.w3.org/2000/svg" xmlns:xlink="http://www.w3.org/1999/xlink" viewBox="0 0 16 17.5" version="1.1" x="0px" y="0px"><title>Calendar 23 日期选择</title><desc>Created with Sketch.</desc><g stroke="none" stroke-width="1" fill="none" fill-rule="evenodd"><g fill="#000000" fill-rule="nonzero"><path d="M5.36316378,2.19142022 L10.6249883,2.19142022 L10.6249883,1.3144628 L5.36316378,1.3144628 L5.36316378,0.437489375 L4.48619036,0.437489375 L4.48619036,1.3144628 L4.48619036,2.19142022 L4.48619036,3.06850555 L5.36316378,3.06850555 L5.36316378,2.19142022 Z M7.11711059,10.9611383 L8.87105742,10.9611383 L8.87105742,11.8381117 L7.11711059,11.8381117 L7.11711059,10.9611383 Z M3.60921695,7.45335662 L5.36316378,7.45335662 L5.36316378,8.33021811 L3.60921695,8.33021811 L3.60921695,7.45335662 Z M7.11711059,9.20719153 L8.87105742,9.20719153 L8.87105742,10.0841649 L7.11711059,10.0841649 L7.11711059,9.20719153 Z M3.60921695,10.9611383 L5.36316378,10.9611383 L5.36316378,11.8381117 L3.60921695,11.8381117 L3.60921695,10.9611383 Z M3.60921695,9.20719153 L5.36316378,9.20719153 L5.36316378,10.0841649 L3.60921695,10.0841649 L3.60921695,9.20719153 Z M10.6249883,9.20719153 L12.3789351,9.20719153 L12.3789351,10.0841649 L10.6249883,10.0841649 L10.6249883,9.20719153 Z M10.6249883,7.45335662 L12.3789351,7.45335662 L12.3789351,8.33021811 L10.6249883,8.33021811 L10.6249883,7.45335662 Z M7.11711059,7.45335662 L8.87105742,7.45335662 L8.87105742,8.33021811 L7.11711059,8.33021811 L7.11711059,7.45335662 Z M7.11711059,5.69931386 L8.87105742,5.69931386 L8.87105742,6.57628727 L7.11711059,6.57628727 L7.11711059,5.69931386 Z M12.3789351,1.3144628 L12.3789351,0.437489375 L11.5019617,0.437489375 L11.5019617,1.31446278 L11.5019617,2.19143619 L11.5019617,3.06852153 L12.3789351,3.06852153 L12.3789351,2.19143619 L14.1328819,2.19143619 L14.1328819,3.94538302 L1.85528611,3.94538303 L1.85528611,2.19142022 L3.60923294,2.19142022 L3.60923294,1.31444681 L0.978312703,1.31444681 L0.978312703,13.5920426 L15.0098393,13.5920426 L15.0098393,1.31444681 L12.3789351,1.31444681 L12.3789351,1.3144628 Z M14.1328819,12.7150692 L1.85528611,12.7150692 L1.85528611,4.82234045 L14.1328819,4.82234045 L14.1328819,12.7150692 Z M10.6249883,5.69931386 L12.3789351,5.69931386 L12.3789351,6.57628727 L10.6249883,6.57628727 L10.6249883,5.69931386 Z"/></g></g><text x="0" y="29" fill="#000000" font-size="5px" font-weight="bold" font-family="'Helvetica Neue', Helvetica, Arial-Unicode, Arial, Sans-serif">Created by iconfun</text><text x="0" y="34" fill="#000000" font-size="5px" font-weight="bold" font-family="'Helvetica Neue', Helvetica, Arial-Unicode, Arial, Sans-serif">from the Noun Project</text></svg>