<svg xmlns="http://www.w3.org/2000/svg" xmlns:xlink="http://www.w3.org/1999/xlink" version="1.1" x="0px" y="0px" viewBox="0 0 100 125" style="enable-background:new 0 0 100 100;" xml:space="preserve"><path d="M89,88h-4.25V41.0751953c0-0.5527344-0.4472656-1-1-1H71.0869141v-5.4912109  c0-0.3564453-0.1904297-0.6865234-0.4990234-0.8652344L51.125,22.4453125v-3.796875H59.5c0.5527344,0,1-0.4472656,1-1v-6.6230469  c0-0.5527344-0.4472656-1-1-1h-9.375c-0.5527344,0-1,0.4472656-1,1v11.4161987l-19.7080078,11.274231  c-0.3115234,0.1787109-0.5039062,0.5097656-0.5039062,0.8681641v5.4912109H16.25c-0.5527344,0-1,0.4472656-1,1V88H11  c-0.5527344,0-1,0.4472656-1,1s0.4472656,1,1,1h78c0.5527344,0,1-0.4472656,1-1S89.5527344,88,89,88z M51.125,12.0253906H58.5  v4.6230469h-7.375V12.0253906z M49.125,88H39.75V66.8408203h9.375V88z M60.25,88h-9.125V66.8408203h9.125V88z M82.75,88h-20.5  V65.8408203c0-0.5527344-0.4472656-1-1-1h-22.5c-0.5527344,0-1,0.4472656-1,1V88h-20.5V42.0751953h12.6630859  c0.5527344,0,1-0.4472656,1-1v-5.9111328l19.2089844-10.9882812l18.9648438,10.984375v5.9150391c0,0.5527344,0.4472656,1,1,1H82.75  V88z"/><path d="M31.8496094,49.0800781h-7.9042969c-0.5527344,0-1,0.4472656-1,1v9.2412109c0,0.5527344,0.4472656,1,1,1h7.9042969  c0.5527344,0,1-0.4472656,1-1v-9.2412109C32.8496094,49.5273438,32.4023438,49.0800781,31.8496094,49.0800781z   M30.8496094,58.3212891h-5.9042969v-7.2412109h5.9042969V58.3212891z"/><path d="M46.6542969,49.0800781H38.75c-0.5527344,0-1,0.4472656-1,1v9.2412109c0,0.5527344,0.4472656,1,1,1h7.9042969  c0.5527344,0,1-0.4472656,1-1v-9.2412109C47.6542969,49.5273438,47.2070312,49.0800781,46.6542969,49.0800781z   M45.6542969,58.3212891H39.75v-7.2412109h5.9042969V58.3212891z"/><path d="M61.4599609,49.0800781h-7.9052734c-0.5527344,0-1,0.4472656-1,1v9.2412109c0,0.5527344,0.4472656,1,1,1h7.9052734  c0.5527344,0,1-0.4472656,1-1v-9.2412109C62.4599609,49.5273438,62.0126953,49.0800781,61.4599609,49.0800781z   M60.4599609,58.3212891h-5.9052734v-7.2412109h5.9052734V58.3212891z"/><path d="M67.3603516,50.0800781v9.2412109c0,0.5527344,0.4472656,1,1,1h7.9042969c0.5527344,0,1-0.4472656,1-1v-9.2412109  c0-0.5527344-0.4472656-1-1-1h-7.9042969C67.8076172,49.0800781,67.3603516,49.5273438,67.3603516,50.0800781z   M69.3603516,51.0800781h5.9042969v7.2412109h-5.9042969V51.0800781z"/><path d="M31.8496094,64.8408203h-7.9042969c-0.5527344,0-1,0.4472656-1,1v9.2412109c0,0.5527344,0.4472656,1,1,1h7.9042969  c0.5527344,0,1-0.4472656,1-1v-9.2412109C32.8496094,65.2880859,32.4023438,64.8408203,31.8496094,64.8408203z   M30.8496094,74.0820312h-5.9042969v-7.2412109h5.9042969V74.0820312z"/><path d="M76.2646484,64.8408203h-7.9042969c-0.5527344,0-1,0.4472656-1,1v9.2412109c0,0.5527344,0.4472656,1,1,1h7.9042969  c0.5527344,0,1-0.4472656,1-1v-9.2412109C77.2646484,65.2880859,76.8173828,64.8408203,76.2646484,64.8408203z   M75.2646484,74.0820312h-5.9042969v-7.2412109h5.9042969V74.0820312z"/><path d="M57.2978516,38.4091797c0-4.0224609-3.2734375-7.2949219-7.2978516-7.2949219s-7.2978516,3.2724609-7.2978516,7.2949219  c0,4.0234375,3.2734375,7.2958984,7.2978516,7.2958984S57.2978516,42.4326172,57.2978516,38.4091797z M50,43.7050781  c-2.9208984,0-5.2978516-2.3759766-5.2978516-5.2958984S47.0791016,33.1142578,50,33.1142578s5.2978516,2.375,5.2978516,5.2949219  S52.9208984,43.7050781,50,43.7050781z"/><text x="0" y="115" fill="#000000" font-size="5px" font-weight="bold" font-family="'Helvetica Neue', Helvetica, Arial-Unicode, Arial, Sans-serif">Created by Made by Made</text><text x="0" y="120" fill="#000000" font-size="5px" font-weight="bold" font-family="'Helvetica Neue', Helvetica, Arial-Unicode, Arial, Sans-serif">from the Noun Project</text></svg>