<svg xmlns="http://www.w3.org/2000/svg" viewBox="0 0 40 50" x="0px" y="0px"><path fill="#000000" fill-rule="evenodd" d="M121,18.2675644 C121.303628,18.4432037 121.556796,18.696372 121.732436,19 L128.004602,19 C128.554345,19 129,19.4438648 129,20 C129,20.5522847 128.544336,21 128.004602,21 L121.732436,21 C121.386626,21.5978014 120.740282,22 120,22 C118.895431,22 118,21.1045695 118,20 C118,19.2597176 118.402199,18.6133738 119,18.2675644 L119,11.0024733 C119,10.4488226 119.443865,10 120,10 C120.552285,10 121,10.455761 121,11.0024733 L121,18.2675644 Z M120,36 C111.163444,36 104,28.836556 104,20 C104,11.163444 111.163444,4 120,4 C128.836556,4 136,11.163444 136,20 C136,28.836556 128.836556,36 120,36 Z M120,34 C127.731986,34 134,27.7319865 134,20 C134,12.2680135 127.731986,6 120,6 C112.268014,6 106,12.2680135 106,20 C106,27.7319865 112.268014,34 120,34 Z M120.5,8.99531555 C120.5,9.27404508 120.268066,9.5 120,9.5 C119.723858,9.5 119.5,9.28596497 119.5,8.99531555 L119.5,8.00468445 C119.5,7.72595492 119.731934,7.5 120,7.5 C120.276142,7.5 120.5,7.71403503 120.5,8.00468445 L120.5,8.99531555 Z M114.93067,10.2196637 C115.070035,10.4610506 114.982152,10.7727001 114.75,10.9067333 C114.510854,11.0448044 114.20997,10.9713735 114.064645,10.7196637 L113.56933,9.86175201 C113.429965,9.62036516 113.517848,9.30871566 113.75,9.17468245 C113.989146,9.03661127 114.29003,9.11004223 114.435355,9.36175201 L114.93067,10.2196637 Z M110.719664,14.0646451 C110.961051,14.2040098 111.040766,14.5178477 110.906733,14.75 C110.768662,14.9891463 110.471373,15.0759952 110.219664,14.9306705 L109.361752,14.4353549 C109.120365,14.2959902 109.040649,13.9821523 109.174682,13.75 C109.312754,13.5108537 109.610042,13.4240048 109.861752,13.5693295 L110.719664,14.0646451 Z M108.995316,19.5 C109.274045,19.5 109.5,19.7319336 109.5,20 C109.5,20.2761424 109.285965,20.5 108.995316,20.5 L108.004684,20.5 C107.725955,20.5 107.5,20.2680664 107.5,20 C107.5,19.7238576 107.714035,19.5 108.004684,19.5 L108.995316,19.5 Z M109.861752,26.4306705 C109.620365,26.5700352 109.308716,26.4821523 109.174682,26.25 C109.036611,26.0108537 109.110042,25.7099698 109.361752,25.5646451 L110.219664,25.0693295 C110.461051,24.9299648 110.7727,25.0178477 110.906733,25.25 C111.044804,25.4891463 110.971373,25.7900302 110.719664,25.9353549 L109.861752,26.4306705 Z M114.435355,30.638248 C114.29599,30.8796348 113.982152,30.9593508 113.75,30.8253175 C113.510854,30.6872464 113.424005,30.3899578 113.56933,30.138248 L114.064645,29.2803363 C114.20401,29.0389494 114.517848,28.9592335 114.75,29.0932667 C114.989146,29.2313379 115.075995,29.5286265 114.93067,29.7803363 L114.435355,30.638248 Z M120.5,31.9953156 C120.5,32.2740451 120.268066,32.5 120,32.5 C119.723858,32.5 119.5,32.285965 119.5,31.9953156 L119.5,31.0046844 C119.5,30.7259549 119.731934,30.5 120,30.5 C120.276142,30.5 120.5,30.714035 120.5,31.0046844 L120.5,31.9953156 Z M126.43067,30.138248 C126.570035,30.3796348 126.482152,30.6912843 126.25,30.8253175 C126.010854,30.9633887 125.70997,30.8899578 125.564645,30.638248 L125.06933,29.7803363 C124.929965,29.5389494 125.017848,29.2272999 125.25,29.0932667 C125.489146,28.9551956 125.79003,29.0286265 125.935355,29.2803363 L126.43067,30.138248 Z M130.638248,25.5646451 C130.879635,25.7040098 130.959351,26.0178477 130.825318,26.25 C130.687246,26.4891463 130.389958,26.5759952 130.138248,26.4306705 L129.280336,25.9353549 C129.038949,25.7959902 128.959234,25.4821523 129.093267,25.25 C129.231338,25.0108537 129.528627,24.9240048 129.780336,25.0693295 L130.638248,25.5646451 Z M131.995316,19.5 C132.274045,19.5 132.5,19.7319336 132.5,20 C132.5,20.2761424 132.285965,20.5 131.995316,20.5 L131.004684,20.5 C130.725955,20.5 130.5,20.2680664 130.5,20 C130.5,19.7238576 130.714035,19.5 131.004684,19.5 L131.995316,19.5 Z M129.780336,14.9306705 C129.538949,15.0700352 129.2273,14.9821523 129.093267,14.75 C128.955196,14.5108537 129.028627,14.2099698 129.280336,14.0646451 L130.138248,13.5693295 C130.379635,13.4299648 130.691284,13.5178477 130.825318,13.75 C130.963389,13.9891463 130.889958,14.2900302 130.638248,14.4353549 L129.780336,14.9306705 Z M125.935355,10.7196637 C125.79599,10.9610506 125.482152,11.0407665 125.25,10.9067333 C125.010854,10.7686621 124.924005,10.4713735 125.06933,10.2196637 L125.564645,9.36175201 C125.70401,9.12036516 126.017848,9.04064925 126.25,9.17468245 C126.489146,9.31275364 126.575995,9.61004223 126.43067,9.86175201 L125.935355,10.7196637 Z" transform="translate(-100)"/><text x="0" y="55" fill="#000000" font-size="5px" font-weight="bold" font-family="'Helvetica Neue', Helvetica, Arial-Unicode, Arial, Sans-serif"></text><text x="0" y="60" fill="#000000" font-size="5px" font-weight="bold" font-family="'Helvetica Neue', Helvetica, Arial-Unicode, Arial, Sans-serif"></text></svg>